<?xml version="1.0" encoding="UTF-8" standalone="no"?>
<!-- Created with Inkscape (http://www.inkscape.org/) -->

<svg
   width="297mm"
   height="210mm"
   viewBox="0 0 297 210"
   version="1.1"
   id="svg1"
   inkscape:version="1.3.2 (091e20e, 2023-11-25)"
   sodipodi:docname="drawing.svg"
   xml:space="preserve"
   xmlns:inkscape="http://www.inkscape.org/namespaces/inkscape"
   xmlns:sodipodi="http://sodipodi.sourceforge.net/DTD/sodipodi-0.dtd"
   xmlns:xlink="http://www.w3.org/1999/xlink"
   xmlns="http://www.w3.org/2000/svg"
   xmlns:svg="http://www.w3.org/2000/svg"><sodipodi:namedview
     id="namedview1"
     pagecolor="#ffffff"
     bordercolor="#999999"
     borderopacity="1"
     inkscape:showpageshadow="2"
     inkscape:pageopacity="0"
     inkscape:pagecheckerboard="0"
     inkscape:deskcolor="#d1d1d1"
     inkscape:document-units="mm"
     inkscape:zoom="0.8239881"
     inkscape:cx="561.29452"
     inkscape:cy="396.85039"
     inkscape:window-width="1440"
     inkscape:window-height="847"
     inkscape:window-x="0"
     inkscape:window-y="25"
     inkscape:window-maximized="1"
     inkscape:current-layer="layer4" /><defs
     id="defs1"><linearGradient
       id="linearGradient2"
       inkscape:collect="always"><stop
         style="stop-color:#ffd500;stop-opacity:1;"
         offset="0"
         id="stop2" /><stop
         style="stop-color:#ff6600;stop-opacity:1;"
         offset="1"
         id="stop3" /></linearGradient><radialGradient
       inkscape:collect="always"
       xlink:href="#linearGradient2"
       id="radialGradient3"
       cx="29.220184"
       cy="60.045872"
       fx="29.220184"
       fy="60.045872"
       r="32.290912"
       gradientTransform="matrix(1,0,0,1.0102832,0,-0.61746507)"
       gradientUnits="userSpaceOnUse" /></defs><g
     inkscape:label="Ground"
     inkscape:groupmode="layer"
     id="layer1"
     sodipodi:insensitive="true"><rect
       style="fill:#008000;stroke-width:2.60054;stroke-linejoin:round"
       id="rect1"
       width="297"
       height="75.137611"
       x="0"
       y="134.86238"
       ry="0" /></g><g
     inkscape:groupmode="layer"
     id="layer2"
     inkscape:label="Sky"
     sodipodi:insensitive="true"><rect
       style="fill:#00ffff;stroke-width:3.48402;stroke-linejoin:round"
       id="rect2"
       width="297"
       height="134.86238"
       x="0"
       y="0"
       ry="0"
       inkscape:label="rect2" /></g><g
     inkscape:groupmode="layer"
     id="layer4"
     inkscape:label="Person"><path
       id="path3"
       style="fill:#fc405b;stroke-width:1;stroke-linejoin:round;fill-opacity:1"
       d="m 215.94031,100.34407 a 8.5091743,8.6697216 0 0 0 -8.50904,8.66924 8.5091743,8.6697216 0 0 0 4.9661,7.88169 12.362385,18.784401 0 0 0 -8.81961,17.96738 12.362385,18.784401 0 0 0 12.36255,18.78438 12.362385,18.784401 0 0 0 12.36255,-18.78438 12.362385,18.784401 0 0 0 -8.79584,-17.98082 8.5091743,8.6697216 0 0 0 4.94233,-7.86825 8.5091743,8.6697216 0 0 0 -8.50904,-8.66924 z" /><path
       id="path4"
       style="fill:#fa6f3a;stroke-width:0.532474;stroke-linejoin:round;fill-opacity:1"
       d="m 184.47242,125.26448 a 4.530912,4.6163993 0 0 0 -4.53084,4.61614 4.530912,4.6163993 0 0 0 2.64431,4.19679 6.5826456,10.002201 0 0 0 -4.69621,9.56716 6.5826456,10.002201 0 0 0 6.58274,10.00219 6.5826456,10.002201 0 0 0 6.58273,-10.00219 6.5826456,10.002201 0 0 0 -4.68355,-9.57431 4.530912,4.6163993 0 0 0 2.63166,-4.18964 4.530912,4.6163993 0 0 0 -4.53084,-4.61614 z" /></g><g
     inkscape:groupmode="layer"
     id="layer3"
     inkscape:label="Sun"><path
       sodipodi:type="star"
       style="fill:url(#radialGradient3);stroke-width:1;stroke-linejoin:round"
       id="path2"
       inkscape:flatsided="false"
       sodipodi:sides="36"
       sodipodi:cx="29.220184"
       sodipodi:cy="60.045872"
       sodipodi:r1="32.622967"
       sodipodi:r2="16.31148"
       sodipodi:arg1="-1.5707963"
       sodipodi:arg2="-1.4835298"
       inkscape:rounded="0"
       inkscape:randomized="0"
       d="m 29.220185,27.422905 1.421639,16.373557 4.24328,-15.877941 -1.443197,16.371672 6.93599,-14.899882 -4.264183,15.87234 9.417954,-13.469097 -6.955602,14.890737 11.613758,-11.629061 -9.435681,13.456685 13.456684,-9.435681 -11.62906,11.613758 14.890736,-6.955603 -13.469097,9.417955 15.87234,-4.264183 -14.899882,6.93599 16.371671,-1.443197 -15.877941,4.24328 16.373557,1.421639 -16.373557,1.421639 15.877941,4.243279 -16.371672,-1.443197 14.899882,6.93599 -15.87234,-4.264182 13.469097,9.417954 L 42.581766,69.401753 54.210826,81.015511 40.754141,71.57983 50.189822,85.036515 38.576064,73.407454 45.531667,88.29819 36.113713,74.829093 40.377895,90.701433 33.441905,75.801551 34.885102,92.173222 30.641822,76.295281 29.220183,92.668839 27.798544,76.295281 23.555265,92.173222 24.998462,75.801551 18.062472,90.701433 22.326654,74.829092 12.9087,88.298189 19.864303,73.407453 8.2505448,85.036514 17.686226,71.579829 4.2295414,81.01551 15.858602,69.401751 0.96786592,76.357354 14.436963,66.9394 -1.4353771,71.203583 13.464505,64.267592 -2.9071664,65.71079 12.970775,61.46751 -3.4027824,60.045871 12.970775,58.624232 -2.9071661,54.380952 13.464505,55.824149 -1.4353765,48.888159 14.436964,53.152342 0.9678668,43.734388 15.858603,50.689991 4.2295425,39.076232 17.686227,48.511913 8.2505462,35.055229 19.864305,46.684289 12.908702,31.793553 22.326656,45.26265 18.062473,29.39031 l 6.935991,14.899882 -1.443198,-16.371671 4.24328,15.877941 z"
       inkscape:transform-center-y="-2.1953447"
       transform="matrix(0.70471639,0,0,0.70471639,8.8200149,-12.203256)" /></g></svg>
