<?xml version="1.0" encoding="UTF-8" standalone="no"?>
<!-- Created with Inkscape (http://www.inkscape.org/) -->

<svg
   width="210mm"
   height="297mm"
   viewBox="0 0 210 297"
   version="1.1"
   id="svg1"
   inkscape:version="1.3.2 (091e20e, 2023-11-25)"
   sodipodi:docname="drawing.svg"
   xmlns:inkscape="http://www.inkscape.org/namespaces/inkscape"
   xmlns:sodipodi="http://sodipodi.sourceforge.net/DTD/sodipodi-0.dtd"
   xmlns="http://www.w3.org/2000/svg"
   xmlns:svg="http://www.w3.org/2000/svg">
  <sodipodi:namedview
     id="namedview1"
     pagecolor="#505050"
     bordercolor="#eeeeee"
     borderopacity="1"
     inkscape:showpageshadow="0"
     inkscape:pageopacity="0"
     inkscape:pagecheckerboard="0"
     inkscape:deskcolor="#505050"
     inkscape:document-units="mm"
     inkscape:zoom="0.46064685"
     inkscape:cx="695.76076"
     inkscape:cy="136.7642"
     inkscape:window-width="1440"
     inkscape:window-height="847"
     inkscape:window-x="0"
     inkscape:window-y="25"
     inkscape:window-maximized="1"
     inkscape:current-layer="layer1" />
  <defs
     id="defs1" />
  <g
     inkscape:label="Layer 1"
     inkscape:groupmode="layer"
     id="layer1">
    <rect
       style="fill:#f24e11;stroke:#a02c2c;stroke-width:4.99999;stroke-dasharray:none"
       id="rect2"
       width="159.19704"
       height="79.913139"
       x="-164.86017"
       y="142.20763"
       ry="36.495758"
       rx="52.226696" />
    <path
       id="rect1"
       style="fill:#f24e11;stroke:#a02c2c;stroke-width:5;stroke-dasharray:none"
       d="m 18.230412,-116.40892 c -1.127494,1.1344 -2.265403,2.25826 -3.388424,3.39721 -5.1101492,5.29802 -10.2784437,10.54002 -15.33033029,15.893607 -4.30129781,4.558173 -8.53247991,9.183304 -12.72532171,13.843083 v 21.474658 c 14.3028114,-0.07918 28.605584,-0.171856 42.908492,-0.222726 7.091161,-0.02221 14.182439,-0.02656 21.273637,-0.04496 v -54.340872 z m 39.030176,0 v 54.327438 c 23.701372,-0.05818 47.402862,-0.114644 71.104182,-0.150378 v -30.265853 c 0,-13.246667 -55.517767,-69.803787 -59.777725,-57.260787 z m -47.9567631,0.0698 c -12.535039,0.71772 -22.4240849,10.9779 -22.5092209,23.678139 2.679416,-2.92193 5.3677596,-5.835762 8.0878789,-8.718849 4.75321319,-5.03797 9.6067917,-9.97987 14.421342,-14.95929 z M 128.12655,-55.938704 c -23.62191,0.03562 -47.243998,0.09148 -70.865962,0.149344 v 2.976563 c -0.03046,5.85889 0.01241,11.717462 0.0894,17.575671 h 47.103582 c 12.15494,0 22.11038,-8.987556 23.67298,-20.701578 z m -77.158085,0.16278 c -7.08379,0.01835 -14.167666,0.02277 -21.251416,0.04496 -14.209233,0.05053 -28.4182795,0.142644 -42.627372,0.221175 1.746598,11.502911 11.6016634,20.272664 23.607344,20.272664 h 40.360328 c -0.07655,-5.858127 -0.119201,-11.716858 -0.08888,-17.575671 z"
       sodipodi:nodetypes="ccscccccccccsscccscccccsccccsccc" />
    <path
       style="fill:#ff0000;stroke:#550000;stroke-width:2.13542;stroke-dasharray:none"
       id="path2"
       sodipodi:type="arc"
       sodipodi:cx="-108.52769"
       sodipodi:cy="216.1759"
       sodipodi:rx="38.856152"
       sodipodi:ry="31.998489"
       sodipodi:start="0"
       sodipodi:end="5.2197469"
       sodipodi:arc-type="slice"
       d="m -69.671535,216.1759 a 38.856152,31.998489 0 0 1 -28.647135,30.87429 38.856152,31.998489 0 0 1 -43.70056,-14.65054 38.856152,31.998489 0 0 1 5.68347,-38.57282 38.856152,31.998489 0 0 1 46.687099,-5.61861 l -18.879029,27.96768 z" />
    <path
       style="fill:#ff0000;stroke:#550000;stroke-width:4.99999;stroke-dasharray:none"
       id="path3"
       sodipodi:type="arc"
       sodipodi:cx="-218.97458"
       sodipodi:cy="184.0519"
       sodipodi:rx="43.41737"
       sodipodi:ry="46.878178"
       sodipodi:start="0"
       sodipodi:end="3.1509008"
       sodipodi:arc-type="arc"
       d="m -175.55721,184.0519 a 43.41737,46.878178 0 0 1 -21.82545,40.67022 43.41737,46.878178 0 0 1 -43.53351,-0.21876 43.41737,46.878178 0 0 1 -21.4739,-40.88781"
       sodipodi:open="true" />
    <path
       sodipodi:type="star"
       style="fill:#ff0000;stroke:#550000;stroke-width:4.99999;stroke-dasharray:none"
       id="path4"
       inkscape:flatsided="false"
       sodipodi:sides="5"
       sodipodi:cx="156.05084"
       sodipodi:cy="200.09746"
       sodipodi:r1="75.950272"
       sodipodi:r2="37.975136"
       sodipodi:arg1="-2.8797933"
       sodipodi:arg2="-2.2514748"
       inkscape:rounded="0"
       inkscape:randomized="0"
       d="m 82.688513,180.44008 49.463797,-9.85484 19.9236,-46.33397 24.65767,43.99756 50.22295,4.63048 -34.22452,37.04683 11.11589,49.19576 -45.80959,-21.10135 -43.35295,25.77417 5.91264,-50.08819 z"
       inkscape:transform-center-x="0.84434955"
       inkscape:transform-center-y="-4.1756284"
       transform="matrix(0.68740732,0,0,0.68740732,-320.67983,-50.387316)" />
    <path
       sodipodi:type="star"
       style="fill:#ff0000;stroke:#550000;stroke-width:4.99999;stroke-dasharray:none"
       id="path4-1"
       inkscape:flatsided="false"
       sodipodi:sides="5"
       sodipodi:cx="156.05084"
       sodipodi:cy="200.09746"
       sodipodi:r1="112.90679"
       sodipodi:r2="107.67615"
       sodipodi:arg1="2.798223"
       sodipodi:arg2="5.3379054"
       inkscape:rounded="0"
       inkscape:randomized="0"
       d="M 49.734919,238.10888 219.09695,112.80862 87.046406,110.73118 258.54978,233.08413 219.71968,106.85464 156.35256,307.77318 264.40478,231.8365 53.738379,233.65804 159.34842,312.95608 92.516543,113.16331 Z"
       inkscape:transform-center-x="4.8598476"
       inkscape:transform-center-y="-9.6056484"
       transform="matrix(0.32422025,-0.26386302,0.235148,0.36381231,-416.64113,41.155861)" />
    <path
       sodipodi:type="spiral"
       style="fill:none;fill-rule:evenodd;stroke:#d35f5f;stroke-width:2.265;stroke-dasharray:none"
       id="path5"
       sodipodi:cx="-164.23093"
       sodipodi:cy="-54.743641"
       sodipodi:expansion="1"
       sodipodi:revolution="2.8987956"
       sodipodi:radius="65.701691"
       sodipodi:argument="-18.653975"
       sodipodi:t0="0.083160341"
       d="m -164.99033,-49.332897 c -4.7944,2.281072 -9.48402,-2.527627 -10.26263,-6.957697 -1.40833,-8.012956 5.83028,-14.542706 13.35654,-15.08638 11.09679,-0.801599 19.70039,9.159178 19.91012,19.755386 0.28026,14.159761 -12.49459,24.896367 -26.15423,24.73387 -17.21771,-0.204824 -30.11133,-15.832421 -29.55761,-32.553076 0.67139,-20.274195 19.17146,-35.337123 38.95192,-34.38136 23.33022,1.127282 40.56967,22.511241 39.2051,45.350767 -1.57646,26.386135 -25.85151,45.8067301 -51.74961,44.0288491 -29.44205,-2.0211698 -51.04694,-29.1921231 -48.85259,-58.1484571 2.46273,-32.498024 32.53299,-56.289425 64.5473,-53.676335 21.36064,1.74351 40.64821,14.72142 50.80028,33.520642" />
    <text
       xml:space="preserve"
       style="font-style:normal;font-variant:normal;font-weight:normal;font-stretch:normal;font-size:49.2914px;font-family:Thonburi;-inkscape-font-specification:Thonburi;fill:#280b0b;stroke:#d35f5f;stroke-width:1;stroke-dasharray:none"
       x="36.068375"
       y="97.483429"
       id="text9"
       transform="scale(1.1808919,0.84681758)"><tspan
         sodipodi:role="line"
         id="tspan9"
         style="font-style:normal;font-variant:normal;font-weight:normal;font-stretch:normal;font-size:49.2914px;font-family:Thonburi;-inkscape-font-specification:Thonburi;stroke-width:1;stroke-dasharray:none"
         x="36.068375"
         y="97.483429">Hello World!</tspan></text>
  </g>
</svg>
