<?xml version="1.0" encoding="UTF-8" standalone="no"?>
<!-- Created with Inkscape (http://www.inkscape.org/) -->

<svg
   width="297mm"
   height="210mm"
   viewBox="0 0 297 210"
   version="1.1"
   id="svg1"
   inkscape:version="1.3.2 (091e20e, 2023-11-25)"
   sodipodi:docname="drawing.svg"
   xml:space="preserve"
   xmlns:inkscape="http://www.inkscape.org/namespaces/inkscape"
   xmlns:sodipodi="http://sodipodi.sourceforge.net/DTD/sodipodi-0.dtd"
   xmlns="http://www.w3.org/2000/svg"
   xmlns:svg="http://www.w3.org/2000/svg"><sodipodi:namedview
     id="namedview1"
     pagecolor="#ffffff"
     bordercolor="#999999"
     borderopacity="1"
     inkscape:showpageshadow="2"
     inkscape:pageopacity="0"
     inkscape:pagecheckerboard="0"
     inkscape:deskcolor="#d1d1d1"
     inkscape:document-units="mm"
     inkscape:zoom="0.8239881"
     inkscape:cx="560.68771"
     inkscape:cy="400.49122"
     inkscape:window-width="1440"
     inkscape:window-height="847"
     inkscape:window-x="0"
     inkscape:window-y="25"
     inkscape:window-maximized="1"
     inkscape:current-layer="layer1" /><defs
     id="defs1" /><g
     inkscape:label="Layer 1"
     inkscape:groupmode="layer"
     id="layer1"><g
       id="g2"
       transform="matrix(0.56797582,0,0,0.56797582,3.0254201,1.9503203)"><ellipse
         style="fill:#ff0000;stroke:none;stroke-width:7.99999;stroke-linejoin:round"
         id="path1"
         cx="60.145096"
         cy="48.986851"
         rx="53.1422"
         ry="44.472473" /><path
         sodipodi:type="star"
         style="fill:#000080;stroke:none;stroke-width:7.99999;stroke-linejoin:round"
         id="path2"
         inkscape:flatsided="false"
         sodipodi:sides="5"
         sodipodi:cx="56.192661"
         sodipodi:cy="158.62384"
         sodipodi:r1="26.011156"
         sodipodi:r2="13.005577"
         sodipodi:arg1="-1.5584513"
         sodipodi:arg2="-0.93013274"
         inkscape:rounded="0"
         inkscape:randomized="0"
         d="m 56.513762,132.61467 7.452691,15.58261 17.061628,2.69467 -12.516936,11.90322 2.70955,17.05927 -15.188584,-8.22601 -15.387034,7.84854 3.129875,-16.98718 -12.21926,-12.20861 17.122953,-2.27264 z"
         inkscape:transform-center-x="-0.099224931"
         inkscape:transform-center-y="-2.3892879"
         transform="translate(3.8532105,-107.24771)" /></g><path
       id="path3"
       style="fill:#000080;stroke:#800000;stroke-width:1.66704;stroke-linejoin:round"
       d="m 208.70327,26.414038 a 18.199744,16.950747 0 0 0 -18.19988,16.950752 18.199744,16.950747 0 0 0 1.4375,6.52301 37.826925,22.838901 0 0 0 -21.06453,20.419579 37.826925,22.838901 0 0 0 4.70532,10.975642 50.31695,33.901492 0 0 0 -17.19541,25.423539 50.31695,33.901492 0 0 0 50.317,33.90152 50.31695,33.901492 0 0 0 50.31699,-33.90152 50.31695,33.901492 0 0 0 -17.1483,-25.480974 37.826925,22.838901 0 0 0 4.65822,-10.918207 37.826925,22.838901 0 0 0 -21.04673,-20.464374 18.199744,16.950747 0 0 0 1.41969,-6.478215 18.199744,16.950747 0 0 0 -18.19987,-16.950752 z" /><circle
       style="fill:#ffff00;stroke:#800000;stroke-width:1.66704;stroke-linejoin:round"
       id="path5"
       cx="208.70326"
       cy="64.91864"
       r="5.3528676" /><circle
       style="fill:#ffff00;stroke:#800000;stroke-width:1.66704;stroke-linejoin:round"
       id="circle5"
       cx="208.70326"
       cy="81.15567"
       r="5.3528676" /><circle
       style="fill:#ffff00;stroke:#800000;stroke-width:1.66704;stroke-linejoin:round"
       id="circle6"
       cx="208.70326"
       cy="97.3927"
       r="5.3528676" /></g></svg>
