<?xml version="1.0" encoding="UTF-8" standalone="no"?>
<!-- Created with Inkscape (http://www.inkscape.org/) -->

<svg
   width="297mm"
   height="210mm"
   viewBox="0 0 297 210"
   version="1.1"
   id="svg1"
   inkscape:version="1.3.2 (091e20e, 2023-11-25)"
   sodipodi:docname="drawing.svg"
   xmlns:inkscape="http://www.inkscape.org/namespaces/inkscape"
   xmlns:sodipodi="http://sodipodi.sourceforge.net/DTD/sodipodi-0.dtd"
   xmlns="http://www.w3.org/2000/svg"
   xmlns:svg="http://www.w3.org/2000/svg">
  <sodipodi:namedview
     id="namedview1"
     pagecolor="#ffffff"
     bordercolor="#999999"
     borderopacity="1"
     inkscape:showpageshadow="2"
     inkscape:pageopacity="0"
     inkscape:pagecheckerboard="0"
     inkscape:deskcolor="#d1d1d1"
     inkscape:document-units="mm"
     inkscape:zoom="0.8239881"
     inkscape:cx="537.02232"
     inkscape:cy="615.30015"
     inkscape:window-width="1440"
     inkscape:window-height="847"
     inkscape:window-x="0"
     inkscape:window-y="25"
     inkscape:window-maximized="0"
     inkscape:current-layer="layer1" />
  <defs
     id="defs1" />
  <g
     inkscape:label="Layer 1"
     inkscape:groupmode="layer"
     id="layer1">
    <path
       id="rect6"
       style="fill:#808000;stroke:#1a1a1a;stroke-width:2;stroke-linejoin:round"
       d="m 218.34864,163.55096 a 23.600918,18.944954 0 0 0 -4.97695,-0.4315 23.600918,18.944954 0 0 0 -23.60115,18.94458 23.600918,18.944954 0 0 0 0.22893,2.56883 h 21.92734 c 3.5578,0 6.42183,-2.86403 6.42183,-6.42183 z" />
    <path
       id="path6"
       style="fill:#808000;stroke:#1a1a1a;stroke-width:2;stroke-linejoin:round"
       d="M 145.77973 138.07323 C 142.22194 138.07323 139.3579 140.93778 139.3579 144.49557 L 139.3579 174.35783 C 139.3579 177.91563 142.22194 180.77966 145.77973 180.77966 L 186.14626 180.77966 A 23.600918 18.944954 0 0 1 185.91733 178.21083 A 23.600918 18.944954 0 0 1 209.51848 159.26625 A 23.600918 18.944954 0 0 1 214.49543 159.69775 L 214.49543 144.49557 C 214.49543 140.93778 211.6314 138.07323 208.0736 138.07323 L 145.77973 138.07323 z " />
    <path
       id="path1"
       style="fill:#333333;stroke:none;stroke-width:2;stroke-linejoin:round"
       d="M 56.835048,3.8531591 C 27.042156,3.8531413 2.8901795,14.491441 2.8900209,27.6145 c 0.00222,6.286357 5.6598273,12.316163 15.7339231,16.769002 v 19.836515 c 0,3.557795 3.112334,5.116539 6.42183,6.422347 19.674928,7.763015 40.17664,3.951048 60.688286,0 3.493571,-0.672948 6.42183,-2.864552 6.42183,-6.422347 V 45.507464 C 103.94406,41.00941 110.73571,34.484234 110.77955,27.6145 110.77939,14.49153 86.627737,3.8532676 56.835048,3.8531591 Z"
       sodipodi:nodetypes="cccssssccc" />
    <path
       id="path2"
       style="fill:#333333;stroke:#800000;stroke-width:1.54549;stroke-linejoin:round"
       d="m 222.49307,4.268138 a 14.515595,14.515595 0 0 0 -14.51558,14.515579 14.515595,14.515595 0 0 0 8.8543,13.341156 A 41.809875,31.760619 0 0 0 206.24041,53.1499 41.809875,31.760619 0 0 0 248.05047,84.910462 41.809875,31.760619 0 0 0 289.86053,53.1499 41.809875,31.760619 0 0 0 278.69731,31.553034 14.515595,14.515595 0 0 0 286.38638,18.783717 14.515595,14.515595 0 0 0 271.87079,4.268138 a 14.515595,14.515595 0 0 0 -14.51557,14.515579 14.515595,14.515595 0 0 0 0.45683,3.486535 41.809875,31.760619 0 0 0 -9.76158,-0.881317 41.809875,31.760619 0 0 0 -11.58491,1.279447 14.515595,14.515595 0 0 0 0.54309,-3.884665 14.515595,14.515595 0 0 0 -14.51558,-14.515579 z" />
    <path
       id="path3"
       style="fill:#333333;stroke:#800000;stroke-width:2;stroke-linejoin:round"
       d="m 45.917589,85.412674 a 36.284405,26.651375 0 0 0 -1.776119,0.08578 8.8302746,8.8302746 0 0 1 -7.098791,3.58583 8.8302746,8.8302746 0 0 1 -1.047482,-0.07493 8.8302746,8.8302746 0 0 1 -8.829435,8.816 8.8302746,8.8302746 0 0 1 -4.394047,-1.19425 8.8302746,8.8302746 0 0 1 -6.731372,3.12436 8.8302746,8.8302746 0 0 1 -2.048454,-0.2682 36.284405,26.651375 0 0 0 -4.358907,12.577006 36.284405,26.651375 0 0 0 36.284607,26.65109 36.284405,26.651375 0 0 0 36.28409,-26.65109 36.284405,26.651375 0 0 0 -36.28409,-26.651596 z" />
    <path
       id="path1-5"
       style="fill:#ff0000;stroke:#1a1a1a;stroke-width:1.18017;stroke-linejoin:round"
       d="m 149.98548,16.627623 c -9.47852,0.125662 -19.46252,1.475607 -27.47335,6.915574 -2.96867,2.070329 -5.5246,6.003799 -3.80502,9.649325 1.59559,3.656402 5.26841,5.750524 8.73065,7.351373 0.0518,4.146198 -0.10581,8.294988 0.0827,12.439178 1.29697,3.13079 5.2053,3.39675 7.99817,4.44244 10.78783,2.7125 21.9839,0.54856 32.64653,-1.68367 2.10597,-0.6468 3.01391,-2.98793 2.66252,-5.0189 0,-3.17194 0,-6.34388 0,-9.515822 4.47234,-1.774966 9.57687,-4.385317 10.88427,-9.428975 0.70961,-4.304049 -2.96275,-7.786107 -6.44486,-9.619891 -7.66956,-4.274012 -16.63025,-5.423137 -25.28164,-5.530632 z m -2.38305,15.413494 c 1.6558,2.399018 2.65105,5.815215 4.69814,7.611705 2.72834,0.251487 5.45667,0.502975 8.185,0.754462 -1.76994,2.316089 -4.71135,4.318269 -5.78738,6.820309 0.60379,2.67249 1.20757,5.34497 1.81135,8.01747 -2.74966,-0.96752 -5.5628,-3.14617 -8.27486,-3.39627 -2.35504,1.40012 -4.71009,2.80025 -7.06514,4.20038 0.33909,-2.87258 0.67817,-5.74516 1.01726,-8.61774 -1.69955,-1.86345 -5.85127,-4.38394 -5.99035,-5.82927 2.89732,-1.253073 7.89216,0.0841 8.83516,-3.58236 0.85694,-1.992894 1.71388,-3.985793 2.57082,-5.978686 z" />
    <g
       id="g5"
       transform="matrix(0.61541354,0,0,0.61541354,25.102976,1.8284408)"
       style="fill:none">
      <path
         id="rect5"
         style="fill:none;stroke:#1a1a1a;stroke-width:2;stroke-linejoin:round"
         d="m 100.50458,162.55516 v -30.26158 c 0,-3.5578 2.86422,-6.42202 6.42202,-6.42202 v 0 h 48.48624 c 3.55779,0 6.42202,2.86422 6.42202,6.42202 v 8.4873" />
      <path
         id="path5"
         style="fill:none;stroke:#1a1a1a;stroke-width:2;stroke-linejoin:round"
         d="m 189.12845,114.1295 v 31.32921 c 0,3.55779 -2.86423,6.42202 -6.42202,6.42202 h -48.48624 c -3.5578,0 -6.42202,-2.86423 -6.42202,-6.42202 v -9.55493" />
    </g>
  </g>
</svg>
