<?xml version="1.0" encoding="UTF-8" standalone="no"?>
<!-- Created with Inkscape (http://www.inkscape.org/) -->

<svg
   width="210mm"
   height="297mm"
   viewBox="0 0 210 297"
   version="1.1"
   id="svg1"
   inkscape:version="1.3.2 (091e20e, 2023-11-25)"
   sodipodi:docname="drawing.svg"
   inkscape:export-filename="drawing.png"
   inkscape:export-xdpi="96"
   inkscape:export-ydpi="96"
   xmlns:inkscape="http://www.inkscape.org/namespaces/inkscape"
   xmlns:sodipodi="http://sodipodi.sourceforge.net/DTD/sodipodi-0.dtd"
   xmlns:xlink="http://www.w3.org/1999/xlink"
   xmlns="http://www.w3.org/2000/svg"
   xmlns:svg="http://www.w3.org/2000/svg">
  <sodipodi:namedview
     id="namedview1"
     pagecolor="#ffffff"
     bordercolor="#999999"
     borderopacity="1"
     inkscape:showpageshadow="2"
     inkscape:pageopacity="0"
     inkscape:pagecheckerboard="0"
     inkscape:deskcolor="#d1d1d1"
     inkscape:document-units="mm"
     inkscape:zoom="0.5946522"
     inkscape:cx="365.76002"
     inkscape:cy="556.62789"
     inkscape:window-width="1440"
     inkscape:window-height="847"
     inkscape:window-x="0"
     inkscape:window-y="25"
     inkscape:window-maximized="1"
     inkscape:current-layer="layer1" />
  <defs
     id="defs1">
    <linearGradient
       id="linearGradient6"
       inkscape:collect="always">
      <stop
         style="stop-color:#2df260;stop-opacity:1;"
         offset="0.62700963"
         id="stop6" />
      <stop
         style="stop-color:#fff410;stop-opacity:0;"
         offset="1"
         id="stop7" />
    </linearGradient>
    <linearGradient
       inkscape:collect="always"
       xlink:href="#linearGradient6"
       id="linearGradient7"
       x1="63.716897"
       y1="247.16462"
       x2="135.07507"
       y2="247.16462"
       gradientUnits="userSpaceOnUse"
       gradientTransform="matrix(1.1683525,0,0,1.4572216,25.313077,-120.12801)" />
  </defs>
  <g
     inkscape:label="Layer 1"
     inkscape:groupmode="layer"
     id="layer1">
    <rect
       style="fill:#ccffaa;fill-opacity:1;stroke:none;stroke-width:3;stroke-linejoin:round"
       id="rect6"
       width="99.734108"
       height="79.913139"
       x="4.7192793"
       y="103.19492"
       ry="9.1239405" />
    <rect
       style="fill:#e6e6e6;stroke:none;stroke-width:2.92682;stroke-linejoin:round"
       id="rect4"
       width="99.419479"
       height="156.05084"
       x="108.22881"
       y="4.4046607"
       ry="9.7531776" />
    <path
       style="fill:#b3b3b3;stroke:#000000;stroke-width:3;stroke-linejoin:round"
       id="path2"
       sodipodi:type="arc"
       sodipodi:cx="58.361748"
       sodipodi:cy="53.642483"
       sodipodi:rx="47.035488"
       sodipodi:ry="45.777016"
       sodipodi:start="0"
       sodipodi:end="5.4960604"
       sodipodi:arc-type="slice"
       d="M 105.39724,53.642483 A 47.035488,45.777016 0 0 1 67.55783,98.536047 47.035488,45.777016 0 0 1 14.92218,71.197096 47.035488,45.777016 0 0 1 32.179605,15.613254 47.035488,45.777016 0 0 1 91.563381,21.217399 L 58.361748,53.642483 Z" />
    <path
       style="fill:#b3b3b3;stroke:#000000;stroke-width:3.40398;stroke-linejoin:round"
       d="m 177.76836,17.293323 c -4.94333,-0.434279 -10.07259,0.615099 -14.99335,0 -1.32921,-0.166148 -2.6232,-0.496696 -3.92684,-0.713961 -1.78878,-0.298131 -3.90868,0 -5.71176,0 -1.96744,0 -3.86153,-0.105637 -5.71174,0.356975 -0.34633,0.08657 -0.7323,-0.112898 -1.07096,0 -3.24259,1.080864 -6.27667,2.654851 -8.92462,4.64081 -1.84656,1.384918 -4.23527,2.103066 -6.06873,3.569839 -1.05916,0.847318 -2.26862,1.911627 -3.21287,2.855879 -0.42071,0.420708 -0.65025,1.007225 -1.07096,1.427945 -0.30337,0.303373 -0.73593,0.445943 -1.07095,0.713961 -0.71517,0.57214 -0.76173,0.809488 -1.07095,1.427945 -0.46328,0.926562 -1.83548,1.702804 -2.4989,2.498892 -5.2733,6.327967 -6.42573,16.317103 -6.42573,24.274962 0,6.26589 -1.06775,14.285769 1.78494,19.991138 1.70078,3.401581 5.10879,5.451908 7.85366,7.853663 2.76259,2.417265 5.54469,4.532404 8.92462,6.068743 2.60683,1.184924 5.77265,1.319097 8.56762,1.78492 4.23506,0.705837 8.52823,1.431224 12.85145,1.070958 3.92295,-0.326917 7.94344,-1.289233 11.7805,-2.141906 4.36397,-0.969781 12.29997,-2.025229 16.06431,-4.283823 0.88837,-0.533029 1.61052,-1.608878 2.4989,-2.141906 0.32266,-0.193607 0.77711,-0.121919 1.07094,-0.356986 0.33503,-0.268018 0.4106,-0.767574 0.71398,-1.070959 0.72963,-0.729619 1.25502,-0.544761 1.78492,-1.427934 0.50653,-0.844208 0.81906,-1.687055 1.42794,-2.498892 1.09402,-1.458694 3.35792,-3.09764 4.28381,-4.640798 0.19361,-0.322674 0.16338,-0.748285 0.35699,-1.070959 0.56344,-0.939055 1.33079,-1.796232 1.78492,-2.855878 0.19328,-0.450959 0.13758,-0.989105 0.35699,-1.427934 0.15052,-0.301036 0.54081,-0.425372 0.71397,-0.713972 0.51627,-0.860446 0.52938,-1.93297 0.71397,-2.855879 -0.124,-0.726329 0.5883,-1.156557 0.71397,-1.78492 0.11441,-0.572094 -0.11443,-1.212836 0,-1.78492 0.27241,-1.362078 0.35698,-2.513518 0.35698,-3.926837 0,-1.520419 0.11142,-2.878673 -0.35698,-4.283812 -0.0752,-0.225785 0.10643,-0.50111 0,-0.713972 -0.0752,-0.150524 -0.30377,-0.19734 -0.35698,-0.356986 -0.39406,-1.182156 -0.43191,-4.001759 -1.07096,-4.640799 -0.65884,-0.65885 -10.58455,1.050127 -10.70954,1.070948 -6.33248,1.055413 2.02078,-0.216153 -4.28382,0.356986 -2.40759,0.218875 -4.75808,1.087706 -7.1397,1.427945 -1.82741,0.261051 -0.35926,-0.445376 -2.49889,0.356975 -1.75152,0.656831 -3.31504,1.734019 -4.99778,2.498903 -0.68513,0.311419 -1.45678,0.402543 -2.14191,0.713961 -0.63166,0.287126 -1.16432,0.760653 -1.78492,1.070959 -2.15063,1.075316 -4.51715,1.743709 -6.78272,2.498892 -0.72331,0.241104 -6.3367,1.873934 -6.7827,1.427934 -0.31767,-0.31767 0.85584,-2.533204 1.07096,-2.855879 0.18668,-0.280033 0.56345,-0.412925 0.71396,-0.713961 0.45468,-0.90936 0.64491,-1.932766 1.07096,-2.855878 1.66107,-3.599001 1.31609,-2.219267 2.85588,-6.068743 0.51726,-1.293182 0.87928,-2.646648 1.42793,-3.926826 2.40502,-5.611703 5.19045,-10.998528 8.56764,-16.064313 0.77212,-1.158191 1.67909,-2.119791 2.49889,-3.212864 0.22577,-0.301036 0.0909,-0.80487 0.35698,-1.070948 0.0842,-0.08419 0.25056,0.05322 0.35699,0 0.54675,-0.273384 0.27916,-0.636157 0.71396,-1.070958 0.18815,-0.188149 0.52583,-0.168837 0.71397,-0.356986 0.32963,-0.329619 1.1495,-1.367253 1.42795,-1.78492 0.32739,-0.491103 0.55072,-0.367153 1.07095,-0.713973 1.1571,-0.771409 2.418,-2.576264 3.21286,-3.569851 z"
       id="path3" />
    <text
       xml:space="preserve"
       style="font-size:25.4px;font-family:Anurag;-inkscape-font-specification:'Anurag, Normal';fill:#b3b3b3;stroke:none;stroke-width:3;stroke-linejoin:round"
       x="112.94809"
       y="118.92584"
       id="text3"><tspan
         sodipodi:role="line"
         id="tspan3"
         style="stroke:none;stroke-width:3"
         x="112.94809"
         y="118.92584">Free hand</tspan><tspan
         sodipodi:role="line"
         style="stroke:none;stroke-width:3"
         x="112.94809"
         y="150.67584"
         id="tspan4">Drawing</tspan></text>
    <path
       id="rect5"
       style="fill:#00ff00;stroke:#000000;stroke-width:4.33647;stroke-linejoin:round"
       d="m 40.994426,112.0639 h 34.563159 l 23.193697,56.8473 H 13.252941 Z"
       sodipodi:nodetypes="ccccc" />
    <path
       d="m 158.09592,222.2706 c -0.30738,-1.53351 -0.61475,-2.30027 -0.92213,-2.30027 -0.23054,0 -0.76846,1.10222 -1.61375,3.30664 -0.84529,2.10859 -1.26795,3.40248 -1.26795,3.88172 0,0.19168 0.69161,0.28752 2.07482,0.28752 0.84529,0 1.38321,-0.0959 1.61374,-0.28752 0.30738,-0.1917 0.46108,-0.67092 0.46108,-1.43768 0,-0.76676 -0.11532,-1.9169 -0.34581,-3.45041 z m -4.72598,-25.87808 c 0.92215,-1.15015 1.6906,-1.72521 2.30537,-1.72521 0.92214,0 2.26693,0.47922 4.03436,1.43767 1.76744,0.95846 2.84327,1.82106 3.22751,2.5878 0.30738,0.67092 1.07583,4.16926 2.30534,10.49502 2.22852,13.22657 4.14965,23.1465 5.76339,29.75978 0.92215,3.54627 1.80587,8.09889 2.65117,13.65789 0.53792,3.83379 0.80688,5.89446 0.80688,6.18198 0,0.76676 9.24983,25.51769 8.63507,26.57197 -0.92215,1.43768 -11.67047,-21.63595 -13.13052,-21.54011 h -0.69161 c -1.30637,0 -2.30535,-0.57506 -2.99696,-1.7252 -0.61476,-1.24599 -1.15269,-3.49834 -1.61375,-6.75707 -1.07583,-5.84653 -1.80587,-9.63239 -2.19009,-11.3576 l -1.26794,-5.31938 h -2.07482 c -2.84327,0.38338 -4.84125,0.71883 -5.99393,1.00637 l -3.91911,0.8626 -3.45803,10.06371 c -2.45905,6.80497 -4.03438,10.59084 -4.72598,11.3576 -0.92215,0.8626 -1.88271,1.29389 -2.8817,1.29389 -1.30637,0 -2.45904,-0.57506 -3.45803,-1.7252 -0.99898,-1.24598 -1.49848,-2.63574 -1.49848,-4.16924 0,-0.86261 0.19212,-1.77314 0.57634,-2.73158 2.92011,-6.90082 4.38017,-10.73461 4.38017,-11.50137 0,-0.47922 -1.03741,-0.71883 -3.11222,-0.71883 -3.91911,0 -35.285499,-4.20925 -35.285499,-8.04304 0,-2.01274 29.906329,-1.11015 30.905319,-1.8769 0.99899,-0.76676 2.99696,-1.29391 5.99392,-1.58145 3.45803,-0.38338 5.37916,-0.71883 5.7634,-1.00635 0.6916,-0.38338 2.26693,-4.12133 4.72597,-11.21385 2.45904,-7.18836 3.84226,-12.55567 4.14964,-16.10192 0.30738,-2.97119 0.99899,-5.03184 2.07482,-6.18198 z"
       id="text6"
       style="font-size:98.6584px;font-family:Anurag;-inkscape-font-specification:'Anurag, Normal';fill:url(#linearGradient7);stroke-width:15.2045;stroke-linejoin:round"
       aria-label="A"
       sodipodi:nodetypes="cscsscsccssccccsccscccccccccscscssssccccc" />
  </g>
</svg>
