<?xml version="1.0" encoding="UTF-8" standalone="no"?>
<!-- Created with Inkscape (http://www.inkscape.org/) -->

<svg
   width="210mm"
   height="297mm"
   viewBox="0 0 210 297"
   version="1.1"
   id="svg1"
   inkscape:version="1.3.2 (091e20e, 2023-11-25)"
   sodipodi:docname="drawing.svg"
   xmlns:inkscape="http://www.inkscape.org/namespaces/inkscape"
   xmlns:sodipodi="http://sodipodi.sourceforge.net/DTD/sodipodi-0.dtd"
   xmlns="http://www.w3.org/2000/svg"
   xmlns:svg="http://www.w3.org/2000/svg">
  <sodipodi:namedview
     id="namedview1"
     pagecolor="#ffffff"
     bordercolor="#999999"
     borderopacity="1"
     inkscape:showpageshadow="2"
     inkscape:pageopacity="0"
     inkscape:pagecheckerboard="0"
     inkscape:deskcolor="#d1d1d1"
     inkscape:document-units="mm"
     inkscape:zoom="0.5946522"
     inkscape:cx="158.91642"
     inkscape:cy="417.0505"
     inkscape:window-width="1440"
     inkscape:window-height="847"
     inkscape:window-x="0"
     inkscape:window-y="25"
     inkscape:window-maximized="1"
     inkscape:current-layer="layer1" />
  <defs
     id="defs1">
    <inkscape:path-effect
       effect="skeletal"
       id="path-effect8"
       is_visible="true"
       lpeversion="1"
       pattern="M 0,4.9921382 C 0,2.2364779 2.2364779,0 4.9921382,0 c 2.7556604,0 4.9921383,2.2364779 4.9921383,4.9921382 0,2.7556604 -2.2364779,4.9921383 -4.9921383,4.9921383 C 2.2364779,9.9842765 0,7.7477986 0,4.9921382 Z"
       copytype="single_stretched"
       prop_scale="1"
       scale_y_rel="false"
       spacing="0"
       normal_offset="0"
       tang_offset="0"
       prop_units="false"
       vertical_pattern="false"
       hide_knot="false"
       fuse_tolerance="0" />
    <inkscape:path-effect
       effect="spiro"
       id="path-effect7"
       is_visible="true"
       lpeversion="1" />
    <inkscape:path-effect
       effect="spiro"
       id="path-effect6"
       is_visible="true"
       lpeversion="1" />
  </defs>
  <g
     inkscape:label="Layer 1"
     inkscape:groupmode="layer"
     id="layer1">
    <path
       style="fill:none;stroke:#ff0000;stroke-width:3;stroke-linejoin:round"
       d="M 20.467145,80.08883 C 43.949458,4.7838867 58.485941,26.561676 85.403487,53.051419 135.84546,102.69171 128.98135,54.19458 168.18655,26.696276"
       id="path3"
       sodipodi:nodetypes="csc" />
    <path
       style="fill:none;stroke:#008000;stroke-width:3;stroke-linejoin:round"
       d="m 18.687394,157.0631 c 0,0 32.925408,41.82416 73.859698,0 40.934298,-41.82417 78.754018,0 78.754018,0"
       id="path4" />
    <path
       style="fill:#ff0000;stroke:#550000;stroke-width:3;stroke-linejoin:round"
       d="m 25.806401,252.72476 62.73625,-52.50268 79.198959,37.81973 -16.90764,37.37478 c 0,0 -19.57727,33.81527 -31.59059,-7.11901 -12.01333,-40.93429 -40.044426,-28.03109 -40.044426,-28.03109 z"
       id="path5" />
    <path
       style="fill:#ff8080;stroke:#550000;stroke-width:3;stroke-linejoin:round"
       d="m -117.01868,155.28335 c -4.12462,-8.96692 -5.46563,-19.19097 -3.79299,-28.91827 1.67265,-9.72731 6.35178,-18.91617 13.23471,-25.9903 6.88294,-7.074133 15.940187,-12.00321 25.618023,-13.94168 9.677836,-1.938469 19.934781,-0.878022 29.01132,2.999428 8.015422,3.424147 15.103359,9.035372 20.16418,16.131842 5.060821,7.09647 8.063813,15.66541 8.403479,24.37497 0.339665,8.70955 -2.004983,17.52495 -6.741324,24.84197 -4.736341,7.31703 -11.8586,13.08676 -20.046581,16.07486 -5.143624,1.8771 -10.74103,2.6661 -16.149558,1.81275 -5.408527,-0.85335 -10.608391,-3.41454 -14.25124,-7.50233 -3.642849,-4.08779 -5.609948,-9.73577 -4.854071,-15.15878 0.377939,-2.7115 1.419788,-5.33519 3.052957,-7.53243 1.633168,-2.19724 3.859138,-3.95907 6.39551,-4.98956 3.114628,-1.26543 6.620519,-1.40491 9.913672,-0.72863 3.293153,0.67628 6.387778,2.137 9.213702,3.95809 5.651847,3.64218 10.251992,8.68407 15.577786,12.78831 12.527267,9.65394 28.857514,13.74489 44.642258,12.75856 15.784744,-0.98632 31.027407,-6.7976 44.437314,-15.18243 26.819816,-16.76966 46.020446,-42.9919 66.081443,-67.447583 10.0305,-12.22784 20.47475,-24.200721 32.44372,-34.538746 11.96896,-10.338025 25.55498,-19.042069 40.57539,-23.993652 15.02042,-4.951583 31.55976,-5.991265 46.67762,-1.345723 15.11787,4.645542 28.6206,15.285975 35.26401,29.638538 3.98021,8.598928 5.44088,18.359792 4.06113,27.734222 -1.37975,9.37443 -5.60726,18.32364 -12.03953,25.281334 -6.43228,6.95769 -15.05041,11.88314 -24.32903,13.8043 -9.27862,1.92116 -19.17297,0.8138 -27.7592,-3.19373 -12.07608,-5.63639 -21.26861,-17.089457 -24.17289,-30.095836 -2.90427,-13.006379 0.53945,-27.275282 9.045,-37.534733 3.92165,-4.730321 8.86296,-8.631495 14.43765,-11.215708 5.57468,-2.584213 11.78045,-3.836065 17.91402,-3.469129 6.13356,0.366935 12.18061,2.367619 17.24187,5.851719 5.06125,3.484101 9.10974,8.455883 11.36296,14.172375 2.69439,6.835769 2.75354,14.635922 0.36262,21.583659 -2.39091,6.947736 -7.17893,13.010453 -13.26582,17.125941 -3.70093,2.502282 -7.89397,4.311253 -12.29429,5.082964 -4.40031,0.771711 -9.00744,0.48749 -13.21512,-1.01373 -4.20769,-1.501219 -7.99614,-4.240169 -10.57871,-7.885526 -2.58256,-3.645357 -3.91619,-8.197322 -3.51136,-12.646411 0.37501,-4.121362 2.22731,-8.066036 5.03444,-11.106808 2.80712,-3.040773 6.53867,-5.183458 10.53839,-6.245773 3.73514,-0.992043 7.78118,-1.044414 11.41104,0.282056 3.62986,1.32647 6.79016,4.115482 8.16623,7.726828 0.87636,2.299921 1.01076,4.876032 0.37849,7.254661 -0.63228,2.378628 -2.0281,4.547983 -3.93081,6.109181 -1.90271,1.561199 -4.30288,2.506502 -6.75919,2.662096 -2.4563,0.155594 -4.95657,-0.479293 -7.04107,-1.787923"
       id="path6"
       inkscape:path-effect="#path-effect6"
       inkscape:original-d="m -117.01868,155.28335 c 21.060397,-21.95028 42.56573,-43.45561 64.071063,-65.850822 21.505336,-22.395211 1.186503,53.837492 1.779754,81.423642 0.593249,27.58616 -17.352581,-21.95027 -25.806402,-33.37035 -8.453821,-11.42007 23.581711,10.67852 34.70516,16.01777 C -31.145657,158.84285 164.03379,86.614586 267.85265,53.392554 371.6715,20.17052 227.95654,95.809971 207.78602,117.01868 187.6155,138.22739 197.84907,72.079947 192.65813,49.388111 c -5.19094,-22.691833 40.48936,3.559506 60.9565,5.339257 20.46714,1.779752 -8.60213,25.658088 -12.9032,38.7096 -4.30107,13.051512 -26.25134,-11.123448 -39.59948,-16.462703 -13.34814,-5.339254 10.23358,-11.123448 15.57283,-17.352581 5.33926,-6.22913 12.9032,4.894318 19.57727,8.008884 6.67407,3.114567 -11.42007,9.640321 -17.35258,14.238015"
       transform="matrix(0.36194131,0,0,0.36194131,198.26135,46.556115)" />
    <path
       style="fill:#800000;stroke:none;stroke-width:3;stroke-linejoin:round"
       d="m -120.57819,157.50803 c -0.56137,0.0152 -1.91263,-7.12281 0.025,-20.13869 1.93765,-13.01589 7.68523,-32.54592 24.304875,-50.490538 14.873939,-16.035389 39.379769,-30.504472 69.49326,-31.249696 16.152518,-0.429791 34.1405692,3.395951 49.29208,13.980918 13.8379,9.682897 24.870688,25.66088 26.639351,44.341986 0.81545,9.23149 -0.716303,18.76401 -4.526346,27.50574 -3.703914,8.48785 -9.485556,16.14817 -16.809553,22.16826 -14.189639,11.59591 -33.6782657,16.63912 -52.452332,13.37051 -8.5583,-1.50519 -16.794879,-4.63503 -24.314207,-9.11989 -8.43264,-5.0296 -15.794266,-11.66209 -21.621681,-19.33432 -11.340922,-14.95832 -16.877012,-33.27694 -17.092866,-51.022884 -0.346307,-27.598512 11.890927,-53.215161 30.218053,-70.056468 0,0 2.6e-5,-9e-6 2.6e-5,-9e-6 C -36.563387,8.3502469 -9.1643371,1.0821223 14.611194,3.4589838 44.382058,6.4731958 67.216634,23.460959 79.868034,41.005581 94.033405,60.68943 96.786336,80.787777 96.661562,93.810513 96.536788,106.83325 93.98437,113.56861 93.436967,113.45919 92.889564,113.34976 94.337336,106.44201 93.470225,93.903193 92.603114,81.364372 88.951651,62.414665 75.093368,44.571067 62.759302,28.656284 41.052144,13.539735 13.891229,11.378594 c -21.644672,-1.7524739 -46.619898,5.370377 -65.10837,22.771338 5e-6,9e-6 -1.8e-5,1.7e-5 -1.8e-5,1.7e-5 -16.270138,15.263956 -27.146547,38.645343 -26.659181,63.213435 0.320472,15.816236 5.282415,32.161686 15.247157,45.139896 5.088109,6.64047 11.520658,12.42372 18.826724,16.80181 6.515178,3.90416 13.609674,6.62145 20.899525,7.87525 15.8981386,2.76745 32.7466022,-1.44936 44.548308,-11.1243 6.163049,-5.01746 11.079685,-11.42684 14.200751,-18.46769 3.217746,-7.24833 4.579388,-15.21137 3.965061,-22.84226 C 38.690241,99.348291 29.191033,85.385341 17.414083,76.788653 4.4056828,67.277655 -11.857667,63.588739 -26.637531,63.614262 c -27.600577,0.10378 -50.865201,12.898142 -65.288497,27.409978 -16.153062,16.22598 -22.621572,34.53529 -25.471862,46.9394 -2.85028,12.40412 -2.61893,19.5292 -3.1803,19.54439 z"
       id="path7"
       inkscape:path-effect="#path-effect7;#path-effect8"
       inkscape:original-d="M -120.57819,157.50803 C -89.284216,125.02756 -57.990247,92.102156 -26.696278,59.621684 4.597692,27.141215 20.912084,96.106598 44.493796,114.34905 68.075505,132.59151 -40.637666,103.2256 -82.758459,97.44141 -124.87925,91.657216 34.853472,108.11992 93.436968,113.45918"
       transform="matrix(0.61261342,0,0,0.61261342,-36.857706,142.21667)" />
  </g>
</svg>
